<svg width="63" height="63" viewBox="0 0 63 63" fill="none" xmlns="http://www.w3.org/2000/svg">
<path d="M59.6959 23.9585V25.2258C59.6959 29.2107 58.7148 33.1336 56.8402 36.6441C54.9657 40.1547 52.256 43.1436 48.9531 45.344L38.1663 52.5299L34.2518 55.1373L31.316 57.0938L30.3373 56.449L27.4015 54.5135L25.9947 53.5869L15.4464 46.636L14.0605 45.723L13.7779 45.536C10.4475 43.3411 7.71255 40.3468 5.81981 36.8232C3.92706 33.2997 2.93601 29.3576 2.93604 25.3526V22.5065C2.93611 19.3799 3.82258 16.3181 5.49145 13.6804C6.80747 11.5995 8.6242 9.88636 10.7734 8.6995C12.9226 7.51265 15.3348 6.89049 17.7866 6.89063H18.1572C20.4198 6.89073 22.6512 7.42071 24.6749 8.43859C26.6985 9.45647 28.4588 10.9343 29.8162 12.755L31.316 14.7656L32.8157 12.755C34.2585 10.8199 36.1549 9.27387 38.3359 8.25491C40.5169 7.23596 42.9146 6.77571 45.3154 6.91521C47.7161 7.0547 50.0453 7.7896 52.0951 9.05438C54.1449 10.3192 55.8518 12.0745 57.0634 14.1639C58.7868 17.1371 59.6951 20.5169 59.6959 23.9585V23.9585Z" fill="#5D62B5"/>
<path d="M34.2515 46.7578V55.125V55.1373L38.1659 52.5299V43.6816L34.2515 46.7578Z" fill="#EA9D2D"/>
<path d="M44.0379 20.6719V23.1328C44.0379 23.456 43.9747 23.7761 43.8518 24.0747C43.7289 24.3733 43.5487 24.6446 43.3215 24.8732C43.0943 25.1017 42.8245 25.283 42.5277 25.4066C42.2308 25.5303 41.9126 25.5938 41.5913 25.5938H39.1448V31.5L38.7866 32.4859L39.4065 33.4688L39.8836 37.0666C40.001 37.9473 40.0378 38.837 39.9937 39.7245C39.9103 41.4114 39.2668 43.0214 38.1661 44.2969L34.2517 47.25V55.1373L31.3158 57.0938L30.3372 56.449V49.2188L25.9946 53.5869L15.4463 46.636L23.4869 35.4375L25.4441 32.4844L28.0069 29.9065L29.3027 29.5875L29.3586 28.5469V25.8054C29.3588 23.1484 30.4082 20.6003 32.2761 18.7216C32.9148 18.0797 33.7806 17.7191 34.6835 17.7188H36.8022C37.6758 17.7189 38.5136 18.0681 39.1313 18.6896L41.102 20.6719H44.0379Z" fill="#FBB540"/>
<path d="M35.2305 20.6719H37.1877V22.6406H35.2305V20.6719Z" fill="#985713"/>
<path d="M39.4066 33.4687H37.9949C36.0253 33.4661 34.083 33.005 32.3201 32.1214L28.0068 29.9066L29.3586 28.5469V28.3906L33.2033 30.3643C34.6919 31.1099 36.332 31.4986 37.9949 31.5H39.1448L39.4066 33.4687Z" fill="#5D62B5"/>
<path d="M31.5592 29.5312H29.3584V27.5625H31.5592C31.7541 27.5623 31.9409 27.4843 32.0788 27.3456C32.2166 27.207 32.2941 27.019 32.2943 26.823V23.625H34.2515V26.823C34.2507 27.541 33.9668 28.2294 33.462 28.7371C32.9573 29.2448 32.273 29.5304 31.5592 29.5312V29.5312Z" fill="#985713"/>
<path d="M31.316 35.4375V37.4062C31.3158 38.1894 31.0065 38.9404 30.4559 39.4942C29.9054 40.048 29.1588 40.3592 28.3802 40.3594V43.94C28.3806 44.8147 28.123 45.6699 27.6401 46.3973L26.4229 48.2344V51.1875L26.7789 51.9036L27.0749 52.5004L27.4016 53.1562V54.5135L25.9948 53.5869L15.4465 46.636L14.0605 45.723L19.5726 37.4062V34.3252C19.5726 34.2501 19.5738 34.1738 19.5763 34.0987C19.6382 32.6591 20.1813 31.2826 21.1176 30.192L22.5085 28.5469L23.4871 32.4844H25.8304C26.3137 32.4844 26.7895 32.6044 27.2155 32.8339C27.6415 33.0634 28.0046 33.3952 28.2725 33.7997C28.6068 34.3035 29.0594 34.7165 29.5903 35.0022C30.1212 35.2878 30.714 35.4374 31.316 35.4375Z" fill="#E4E4E2"/>
<path d="M24.4653 35.4375H26.4226V37.4062H24.4653V35.4375Z" fill="#29C3BE"/>
</svg>
