<svg width="64" height="63" viewBox="0 0 64 63" fill="none" xmlns="http://www.w3.org/2000/svg">
<path d="M48.8818 54.1406V45.2812H54.7535V56.1094C54.7535 57.1537 54.3411 58.1552 53.607 58.8936C52.8729 59.632 51.8773 60.0469 50.8391 60.0469H48.8818V54.1406Z" fill="#F6BB92"/>
<path d="M53.4994 39.375L54.4417 37.0417L55.2777 34.9721C55.7255 33.8593 55.8459 32.6324 55.6236 31.4477C55.4014 30.2631 54.8464 29.1745 54.0296 28.3208C52.9395 27.1813 52.3271 25.6359 52.3271 24.0246V18.375H27.8219V24.025C27.822 25.6364 27.2096 27.1817 26.1194 28.3213C25.3026 29.1748 24.7476 30.2633 24.5253 31.4479C24.3029 32.6324 24.4232 33.8593 24.8709 34.9721L25.7556 37.1715L53.4994 39.375Z" fill="#834B10"/>
<path d="M54.7537 40.441C54.7537 39.0428 54.2606 37.6901 53.3622 36.6233C52.4638 35.5565 51.2182 34.8449 49.8472 34.6151L48.8819 34.4532L43.828 33.6059L40.0744 37.4064L36.2812 33.5767L29.3096 34.4532V60.047H48.8819V52.172C49.7672 51.2812 50.3261 50.1149 50.4674 48.8634C50.6087 47.6119 50.3242 46.3492 49.6602 45.2814H54.7537V40.441Z" fill="#5D62B5"/>
<path d="M53.1229 23.625H27.0264V16.2132C27.0264 12.6094 28.4011 9.15319 30.8481 6.6049C33.2951 4.05661 36.614 2.625 40.0746 2.625C43.5352 2.625 46.8541 4.05661 49.3011 6.6049C51.7481 9.15319 53.1229 12.6094 53.1229 16.2132V23.625Z" fill="#834B10"/>
<path d="M47.9033 16.7344V15.75L46.9247 10.8281H33.224L32.2454 15.75V16.7344C31.4668 16.7344 30.72 17.0455 30.1695 17.5993C29.6189 18.1531 29.3096 18.9043 29.3096 19.6875C29.3096 20.4707 29.6189 24.3837 30.1695 24.9375C30.72 25.4913 30.4423 24.7763 31.221 24.7763L30.9406 24.9375H32.2454C32.2454 26.765 33.9458 27.2052 35.2305 28.4974C36.5151 29.7897 38.2576 30.5156 40.0744 30.5156C41.8912 30.5156 43.6336 29.7897 44.9183 28.4974C46.203 27.2052 46.9247 26.6038 46.9247 24.7763L47.9033 24.9375H49.2081C49.9868 24.9375 49.4287 25.3302 49.9793 24.7763C50.5299 24.2225 50.8392 20.4707 50.8392 19.6875C50.8392 18.9043 50.5299 18.1531 49.9793 17.5993C49.4287 17.0455 48.682 16.7344 47.9033 16.7344Z" fill="#F6BB92"/>
<path d="M39.0958 41.1654V60.0469H17.1992C17.9292 58.9039 18.7789 57.8429 19.7338 56.8821L19.806 56.8095C21.5558 55.0524 22.9555 52.975 23.9297 50.6892C24.3138 49.7885 24.6967 48.8878 24.9756 48.2344C25.2288 47.6401 25.3951 47.25 25.3951 47.25H22.5792C21.7064 47.2493 20.8589 46.9555 20.171 46.4151C19.4832 45.8748 18.9944 45.1189 18.7821 44.2674L18.3002 42.3282L18.1742 41.8212C18.102 41.531 18.0966 41.228 18.1583 40.9354C18.22 40.6427 18.3472 40.3681 18.5302 40.1323C18.7132 39.8965 18.9473 39.7057 19.2145 39.5745C19.4818 39.4433 19.7753 39.3751 20.0727 39.375H23.4379C24.0689 37.4691 25.3572 35.8532 27.0698 34.8198L27.498 34.5627C28.5986 33.8987 29.8479 33.5246 31.1303 33.4749C32.4128 33.4252 33.687 33.7016 34.8351 34.2784L34.878 34.3006C36.1453 34.938 37.2112 35.9179 37.9562 37.1304C38.7012 38.3428 39.0958 39.74 39.0958 41.1654Z" fill="#4B4B4B"/>
<path d="M39.0958 41.3438V44.1369C39.0958 44.7567 38.9019 45.3608 38.5416 45.8636C38.1813 46.3664 37.6729 46.7425 37.0883 46.9384C36.4857 47.1405 35.8342 47.1405 35.2316 46.9384C34.6471 46.7425 34.1386 46.3664 33.7783 45.8636C33.418 45.3608 33.2241 44.7567 33.2241 44.1369V39.375H37.1386L39.0958 41.3438Z" fill="black"/>
<path d="M30.0017 45.9778L28.0445 47.9465C27.8608 48.131 27.6117 48.2345 27.3521 48.2344H24.9753C25.2285 47.6401 25.3949 47.2501 25.3949 47.2501H22.5789C21.6259 47.251 20.7055 46.9008 19.9917 46.2657H26.9472L28.617 44.5849C28.8006 44.4002 29.0497 44.2964 29.3094 44.2964C29.5691 44.2964 29.8181 44.4002 30.0017 44.5849C30.1854 44.7696 30.2885 45.0201 30.2885 45.2813C30.2885 45.5425 30.1854 45.793 30.0017 45.9778V45.9778Z" fill="black"/>
<path d="M21.4807 39.375V40.5647C21.4807 41.0324 21.296 41.4809 20.9672 41.8116C20.6384 42.1423 20.1925 42.3281 19.7276 42.3281H18.3001L18.1741 41.8212C18.102 41.5309 18.0966 41.228 18.1583 40.9354C18.22 40.6427 18.3472 40.3681 18.5302 40.1322C18.7132 39.8964 18.9472 39.7057 19.2145 39.5745C19.4818 39.4433 19.7753 39.375 20.0727 39.375H21.4807Z" fill="black"/>
<path d="M24.516 57.6154C24.3343 57.6152 24.1562 57.5642 24.0017 57.4681C23.8473 57.3719 23.7224 57.2344 23.6412 57.0709C23.5601 56.9074 23.5257 56.7244 23.5421 56.5424C23.5584 56.3604 23.6248 56.1866 23.7338 56.0404C24.901 54.4759 25.8094 52.732 26.4238 50.8762C26.4635 50.7524 26.5272 50.6377 26.6112 50.5388C26.6952 50.44 26.7979 50.3588 26.9133 50.3C27.0287 50.2413 27.1545 50.2062 27.2835 50.1966C27.4124 50.1871 27.542 50.2034 27.6647 50.2445C27.7874 50.2856 27.9007 50.3508 27.9982 50.4363C28.0957 50.5218 28.1754 50.6258 28.2326 50.7425C28.2899 50.8591 28.3236 50.986 28.3318 51.1158C28.34 51.2457 28.3226 51.3758 28.2805 51.4988C27.5996 53.5554 26.593 55.4879 25.2996 57.2216C25.2085 57.3441 25.0902 57.4434 24.9541 57.5118C24.8181 57.5801 24.668 57.6156 24.516 57.6154V57.6154Z" fill="black"/>
<path d="M32.2456 16.7344C33.1656 16.426 34.0078 15.9196 34.7134 15.2504C35.419 14.5812 35.9711 13.7654 36.3313 12.8598L37.1387 10.8281L32.2456 9.84375V16.7344Z" fill="#834B10"/>
<path d="M37.1387 10.8281L37.2533 11.001C38.4222 12.7647 40.0058 14.2107 41.8637 15.2109C43.7216 16.2111 45.7962 16.7344 47.9035 16.7344V9.84375L37.1387 10.8281Z" fill="#834B10"/>
<path d="M36.0787 20.8359C36.7543 20.8359 37.302 20.285 37.302 19.6055C37.302 18.9259 36.7543 18.375 36.0787 18.375C35.4031 18.375 34.8555 18.9259 34.8555 19.6055C34.8555 20.285 35.4031 20.8359 36.0787 20.8359Z" fill="black"/>
<path d="M41.298 20.8359C41.9736 20.8359 42.5213 20.285 42.5213 19.6055C42.5213 18.9259 41.9736 18.375 41.298 18.375C40.6224 18.375 40.0747 18.9259 40.0747 19.6055C40.0747 20.285 40.6224 20.8359 41.298 20.8359Z" fill="black"/>
<path d="M45.9459 42.3281C45.6864 42.3281 45.4374 42.2244 45.2539 42.0398C45.0704 41.8552 44.9673 41.6048 44.9673 41.3438V34.4531C44.9673 34.1921 45.0704 33.9417 45.2539 33.7571C45.4374 33.5725 45.6864 33.4688 45.9459 33.4688C46.2054 33.4688 46.4544 33.5725 46.6379 33.7571C46.8214 33.9417 46.9245 34.1921 46.9245 34.4531V41.3438C46.9245 41.6048 46.8214 41.8552 46.6379 42.0398C46.4544 42.2244 46.2054 42.3281 45.9459 42.3281Z" fill="#C3C3C3"/>
<path d="M45.9461 47.25C47.5675 47.25 48.882 45.9278 48.882 44.2969C48.882 42.6659 47.5675 41.3438 45.9461 41.3438C44.3247 41.3438 43.0103 42.6659 43.0103 44.2969C43.0103 45.9278 44.3247 47.25 45.9461 47.25Z" fill="#E4E4E2"/>
<path d="M45.9459 45.2812C46.4864 45.2812 46.9245 44.8405 46.9245 44.2969C46.9245 43.7532 46.4864 43.3125 45.9459 43.3125C45.4054 43.3125 44.9673 43.7532 44.9673 44.2969C44.9673 44.8405 45.4054 45.2812 45.9459 45.2812Z" fill="#C3C3C3"/>
<path d="M49.8607 60.0469H35.1815C34.4028 60.0469 33.6561 59.7357 33.1055 59.1819C32.5549 58.6281 32.2456 57.877 32.2456 57.0938C32.2456 56.3105 32.5549 55.5594 33.1055 55.0056C33.6561 54.4518 34.4028 54.1406 35.1815 54.1406H36.1601C36.1601 53.6185 36.3663 53.1177 36.7333 52.7485C37.1004 52.3793 37.5982 52.1719 38.1173 52.1719H38.2853C38.8043 52.1719 39.3021 52.3793 39.6692 52.7485L41.0532 54.1406H49.8607V60.0469Z" fill="#F6BB92"/>
<path d="M17.3081 55.4771C17.1635 55.7993 17.0897 56.1491 17.0918 56.5025C17.0939 56.856 17.1719 57.2049 17.3203 57.5253C17.4687 57.8457 17.6842 58.1301 17.9519 58.359C18.2196 58.588 18.5334 58.7561 18.8716 58.8519L22.6386 59.9225C23.3878 60.1354 24.1905 60.0403 24.8701 59.658C25.5496 59.2757 26.0504 58.6375 26.2621 57.8838C26.4738 57.1302 26.3792 56.3228 25.9991 55.6393C25.619 54.9558 24.9846 54.4522 24.2354 54.2392L23.2935 53.9715C23.3634 53.7227 23.3839 53.4625 23.3539 53.2058C23.3238 52.949 23.2438 52.7007 23.1183 52.475C22.9928 52.2494 22.8244 52.0508 22.6226 51.8906C22.4209 51.7304 22.1897 51.6118 21.9424 51.5415L21.7808 51.4956C21.5335 51.4253 21.2748 51.4047 21.0195 51.4349C20.7642 51.4652 20.5174 51.5457 20.2931 51.6719C19.1836 52.2962 18.3025 53.2619 17.7793 54.4273L17.3081 55.4771Z" fill="#F6BB92"/>
<path d="M12.3125 23.625C13.2488 23.6251 14.1467 24.059 14.8088 24.8313L16.5876 26.9064L18.3661 24.8313C19.0283 24.059 19.9262 23.6251 20.8625 23.625C21.6499 23.625 22.4147 23.932 23.0354 24.4974C23.656 25.0627 24.0968 25.8538 24.2878 26.745C24.5037 27.7525 24.4473 28.8133 24.1263 29.7821C23.8053 30.7508 23.2354 31.58 22.4946 32.1561L16.5877 36.75L10.6809 32.1561C9.94011 31.58 9.37016 30.7508 9.04915 29.7821C8.72813 28.8133 8.67175 27.7525 8.88773 26.745C9.07865 25.8539 9.5194 25.0628 10.1399 24.4975C10.7605 23.9322 11.5252 23.6251 12.3125 23.625V23.625Z" fill="#5D62B5"/>
<path d="M32.2456 16.7344H33.2242V22.6406H32.2456V16.7344Z" fill="#EEB58E"/>
<path d="M46.9248 16.7344H47.9034V22.6406H46.9248V16.7344Z" fill="#EEB58E"/>
<path d="M36.2812 33.5765L40.0744 37.4062L43.828 33.6058C43.5995 33.5675 43.3919 33.4489 43.2422 33.2711C43.0924 33.0933 43.0102 32.8679 43.0102 32.6349V29.5312H37.1385V32.5998C37.1385 32.8397 37.0514 33.0714 36.8935 33.2512C36.7357 33.4311 36.5179 33.5468 36.2812 33.5765V33.5765Z" fill="#F6BB92"/>
<path d="M40.0743 31.5C37.3059 31.5 34.6508 30.532 32.6931 28.809C30.7355 27.0861 29.6357 24.7492 29.6357 22.3125V21H50.5129V22.3125C50.5129 24.7492 49.4132 27.0861 47.4555 28.809C45.4979 30.532 42.8428 31.5 40.0743 31.5Z" fill="#5D62B5"/>
<path d="M28.3312 41.3438C28.8716 41.3438 29.3098 40.903 29.3098 40.3594C29.3098 39.8157 28.8716 39.375 28.3312 39.375C27.7907 39.375 27.3525 39.8157 27.3525 40.3594C27.3525 40.903 27.7907 41.3438 28.3312 41.3438Z" fill="black"/>
</svg>
