<svg width="64" height="63" viewBox="0 0 64 63" fill="none" xmlns="http://www.w3.org/2000/svg">
<path d="M58.9369 5.25H5.48413C4.39075 5.25 3.50439 6.14543 3.50439 7.25V45.25C3.50439 46.3546 4.39075 47.25 5.48413 47.25H58.9369C60.0303 47.25 60.9167 46.3546 60.9167 45.25V7.25C60.9167 6.14543 60.0303 5.25 58.9369 5.25Z" fill="#5D62B5"/>
<path d="M28.2959 24.2812L22.4242 30.1875C22.2493 30.1001 22.0797 30.0054 21.9154 29.9033C20.9425 29.3093 20.1264 28.4882 19.5361 27.5095C18.9458 26.5309 18.5988 25.4235 18.5244 24.2812C18.5147 24.1274 18.5098 23.9724 18.5098 23.8161V21.3281H24.3815L28.2959 24.2812Z" fill="#F3AF3E"/>
<path d="M26.3387 27.2344L23.8921 28.7109L21.9153 29.9033C20.9425 29.3093 20.1264 28.4882 19.5361 27.5095C18.9458 26.5309 18.5988 25.4235 18.5244 24.2812H23.4921L25.8567 26.7348L26.3387 27.2344Z" fill="#5B3726"/>
<path d="M45.9112 21.3281V23.8161C45.9112 23.9724 45.9063 24.1274 45.8965 24.2812C45.8153 25.5224 45.4126 26.7206 44.7285 27.7567C44.0443 28.7928 43.1025 29.6309 41.9967 30.1875L36.125 24.2812L40.0395 21.3281H45.9112Z" fill="#F3AF3E"/>
<path d="M45.8963 24.2812C45.827 25.3459 45.5209 26.3812 45.0005 27.3109C44.48 28.2405 43.7586 29.0407 42.8895 29.6522L40.0393 28.2187L38.082 27.2344L38.564 26.7348L40.9286 24.2812H45.8963Z" fill="#5B3726"/>
<path d="M42.9749 32.1562V44.9531H21.4453V32.1562C21.4453 29.2845 22.5795 26.5303 24.5982 24.4996C26.617 22.4689 29.3551 21.3281 32.2101 21.3281C35.0651 21.3281 37.8032 22.4689 39.822 24.4996C41.8408 26.5303 42.9749 29.2845 42.9749 32.1562V32.1562Z" fill="#F3AF3E"/>
<path d="M27.0093 28.2844L29.9461 27.3008L30.5646 29.1692L27.6278 30.1529L27.0093 28.2844Z" fill="#D18D28"/>
<path d="M33.8579 29.1364L34.4764 27.2679L37.4133 28.2515L36.7947 30.12L33.8579 29.1364Z" fill="#D18D28"/>
<path d="M38.3051 35.8858L37.4297 34.125C36.6542 34.5125 34.0193 36.6621 33.1896 36.4127V34.125H31.2324V36.4137C30.4026 36.6627 27.7667 34.5124 26.9911 34.125L26.1157 35.8858C26.7875 36.222 29.265 38.4861 30.0146 38.5193C30.7642 38.5525 31.5124 38.4273 32.211 38.1518C32.9096 38.4272 33.6578 38.5523 34.4074 38.519C35.157 38.4857 37.6333 36.2221 38.3051 35.8858Z" fill="#744630"/>
<path d="M24.3812 42C24.3818 42.3456 24.2915 42.6852 24.1194 42.9844H21.4453V39.0469C22.2239 39.0469 22.9707 39.358 23.5213 39.9118C24.0718 40.4656 24.3812 41.2168 24.3812 42Z" fill="#D18D28"/>
<path d="M42.9749 39.0469V42.9844H40.3008C40.1288 42.6852 40.0384 42.3456 40.0391 42C40.0391 41.2168 40.3484 40.4656 40.899 39.9118C41.4495 39.358 42.1963 39.0469 42.9749 39.0469Z" fill="#D18D28"/>
<path d="M21.4457 43.9688H19.4885C18.9694 43.9688 18.4716 43.7613 18.1045 43.3921C17.7375 43.0229 17.5312 42.5221 17.5312 42C17.5312 41.2168 17.8406 40.4656 18.3911 39.9118C18.9417 39.358 19.6885 39.0469 20.4671 39.0469C21.2457 39.0469 21.9925 39.358 22.5431 39.9118C23.0936 40.4656 23.403 41.2168 23.403 42C23.403 42.5221 23.1968 43.0229 22.8297 43.3921C22.4626 43.7613 21.9648 43.9688 21.4457 43.9688Z" fill="#F3AF3E"/>
<path d="M44.9325 43.9688H42.9753C42.4562 43.9688 41.9584 43.7613 41.5913 43.3921C41.2243 43.0229 41.0181 42.5221 41.0181 42C41.0181 41.2168 41.3274 40.4656 41.878 39.9118C42.4285 39.358 43.1753 39.0469 43.9539 39.0469C44.7326 39.0469 45.4793 39.358 46.0299 39.9118C46.5805 40.4656 46.8898 41.2168 46.8898 42C46.8898 42.5221 46.6836 43.0229 46.3165 43.3921C45.9495 43.7613 45.4516 43.9688 44.9325 43.9688Z" fill="#F3AF3E"/>
<path d="M32.2102 35.1094C31.6911 35.1094 31.1932 34.902 30.8262 34.5327C30.4591 34.1635 30.2529 33.6628 30.2529 33.1406V31.1719H34.1674V33.1406C34.1674 33.6628 33.9612 34.1635 33.5941 34.5327C33.2271 34.902 32.7293 35.1094 32.2102 35.1094Z" fill="#5B3726"/>
<path d="M41.018 53.4844H23.4028L23.5704 53.3158C25.342 51.5325 26.3377 49.1148 26.3387 46.5938H38.0821C38.0823 49.115 39.078 51.533 40.8504 53.3158L41.018 53.4844Z" fill="#D9D9D9"/>
<path d="M58.9369 47.25H5.48413C4.95907 47.25 4.45552 47.0288 4.08425 46.6349C3.71297 46.2411 3.50439 45.707 3.50439 45.15V42H60.9167V45.15C60.9167 45.707 60.7081 46.2411 60.3368 46.6349C59.9656 47.0288 59.462 47.25 58.9369 47.25Z" fill="#E4E4E2"/>
<path d="M23.4025 53.4844H41.0177C41.5368 53.4844 42.0346 53.6918 42.4017 54.061C42.7687 54.4302 42.9749 54.931 42.9749 55.4531V57.4219H21.4453V55.4531C21.4453 54.931 21.6515 54.4302 22.0186 54.061C22.3856 53.6918 22.8835 53.4844 23.4025 53.4844V53.4844Z" fill="#E4E4E2"/>
<path d="M38.2873 48.5625H26.1328C26.2696 47.9153 26.3384 47.2554 26.3383 46.5938H38.0817C38.0816 47.2554 38.1505 47.9153 38.2873 48.5625V48.5625Z" fill="#A8A8A8"/>
<ellipse cx="55.6971" cy="10.5" rx="2.60965" ry="2.625" fill="#62B58F"/>
</svg>
